<svg width="18" height="18" viewBox="0 0 18 18" fill="none" xmlns="http://www.w3.org/2000/svg">
<g id="map-pin">
<path id="Vector" fill-rule="evenodd" clip-rule="evenodd" d="M8.72095 17.0397L8.72365 17.0406C8.90095 17.118 8.99995 17.1 8.99995 17.1C8.99995 17.1 9.09895 17.118 9.27715 17.0406L9.27895 17.0397L9.28435 17.037L9.30055 17.0298C9.38598 16.9901 9.47031 16.9481 9.55345 16.9038C9.72085 16.8174 9.95485 16.6878 10.2348 16.5141C10.7928 16.1685 11.5353 15.6447 12.2814 14.9256C13.7718 13.4892 15.3 11.2437 15.3 8.09999C15.3 7.27266 15.137 6.45343 14.8204 5.68908C14.5038 4.92473 14.0397 4.23022 13.4547 3.64521C12.8697 3.06021 12.1752 2.59615 11.4109 2.27955C10.6465 1.96294 9.82728 1.79999 8.99995 1.79999C8.17262 1.79999 7.3534 1.96294 6.58905 2.27955C5.82469 2.59615 5.13019 3.06021 4.54518 3.64521C3.96017 4.23022 3.49611 4.92473 3.17951 5.68908C2.86291 6.45343 2.69995 7.27266 2.69995 8.09999C2.69995 11.2428 4.22815 13.4892 5.71945 14.9256C6.34383 15.5253 7.02949 16.0577 7.76515 16.5141C8.05008 16.691 8.34321 16.8544 8.64355 17.0037L8.69935 17.0298L8.71555 17.037L8.72095 17.0397ZM8.99995 10.125C9.53701 10.125 10.0521 9.91164 10.4318 9.53188C10.8116 9.15212 11.025 8.63705 11.025 8.09999C11.025 7.56292 10.8116 7.04786 10.4318 6.6681C10.0521 6.28834 9.53701 6.07499 8.99995 6.07499C8.46289 6.07499 7.94782 6.28834 7.56806 6.6681C7.1883 7.04786 6.97495 7.56292 6.97495 8.09999C6.97495 8.63705 7.1883 9.15212 7.56806 9.53188C7.94782 9.91164 8.46289 10.125 8.99995 10.125Z" fill="#9CA3AF"/>
</g>
</svg>
