<svg width="20" height="20" viewBox="0 0 20 20" fill="none" xmlns="http://www.w3.org/2000/svg">
<path d="M9.99992 6.66667C8.15825 6.66667 6.66659 8.15833 6.66659 10C6.66659 11.8417 8.15825 13.3333 9.99992 13.3333C11.8416 13.3333 13.3333 11.8417 13.3333 10C13.3333 8.15833 11.8416 6.66667 9.99992 6.66667ZM17.4499 9.16667C17.0666 5.69167 14.3083 2.93333 10.8333 2.55V1.66667C10.8333 1.20833 10.4583 0.833333 9.99992 0.833333C9.54159 0.833333 9.16659 1.20833 9.16659 1.66667V2.55C5.69159 2.93333 2.93325 5.69167 2.54992 9.16667H1.66659C1.20825 9.16667 0.833252 9.54167 0.833252 10C0.833252 10.4583 1.20825 10.8333 1.66659 10.8333H2.54992C2.93325 14.3083 5.69159 17.0667 9.16659 17.45V18.3333C9.16659 18.7917 9.54159 19.1667 9.99992 19.1667C10.4583 19.1667 10.8333 18.7917 10.8333 18.3333V17.45C14.3083 17.0667 17.0666 14.3083 17.4499 10.8333H18.3333C18.7916 10.8333 19.1666 10.4583 19.1666 10C19.1666 9.54167 18.7916 9.16667 18.3333 9.16667H17.4499ZM9.99992 15.8333C6.77492 15.8333 4.16659 13.225 4.16659 10C4.16659 6.775 6.77492 4.16667 9.99992 4.16667C13.2249 4.16667 15.8333 6.775 15.8333 10C15.8333 13.225 13.2249 15.8333 9.99992 15.8333Z" fill="#111928"/>
</svg>
