<svg width="155" height="21" viewBox="0 0 155 21" fill="none" xmlns="http://www.w3.org/2000/svg">
<path d="M0.494629 20V-2.98023e-07H15.3196V4.375H5.36963V9.425H13.8196V13.8H5.36963V20H0.494629ZM22.1095 20.275C17.0845 20.275 13.5845 16.875 13.5845 11.85C13.5845 6.85 17.0845 3.45 22.1095 3.45C27.1345 3.45 30.6345 6.85 30.6345 11.85C30.6345 16.875 27.1345 20.275 22.1095 20.275ZM18.4095 11.85C18.4095 14.2 19.9345 15.775 22.1095 15.775C24.2845 15.775 25.8095 14.2 25.8095 11.85C25.8095 9.55 24.2845 7.975 22.1095 7.975C19.9345 7.975 18.4095 9.55 18.4095 11.85ZM38.1524 20.275C33.1274 20.275 29.6274 16.875 29.6274 11.85C29.6274 6.85 33.1274 3.45 38.1524 3.45C43.1774 3.45 46.6774 6.85 46.6774 11.85C46.6774 16.875 43.1774 20.275 38.1524 20.275ZM34.4524 11.85C34.4524 14.2 35.9774 15.775 38.1524 15.775C40.3274 15.775 41.8524 14.2 41.8524 11.85C41.8524 9.55 40.3274 7.975 38.1524 7.975C35.9774 7.975 34.4524 9.55 34.4524 11.85ZM53.2454 20.275C48.9704 20.275 45.6704 16.875 45.6704 11.875C45.6704 6.9 48.9704 3.475 53.2454 3.475C55.1204 3.475 56.6704 4.125 57.8204 5.3V-2.98023e-07H62.5704V20H58.1454V18.2C56.9454 19.5 55.2704 20.275 53.2454 20.275ZM50.4454 11.85C50.4454 14.15 51.9454 15.7 54.0954 15.7C56.2204 15.7 57.7454 14.15 57.7454 11.85C57.7454 9.575 56.2204 8.05 54.0954 8.05C51.9454 8.05 50.4454 9.575 50.4454 11.85ZM63.5679 20V6.425H68.4429V20H63.5679ZM63.5679 4.375V-2.98023e-07H68.4429V4.375H63.5679ZM76.7796 20.275C71.9046 20.275 68.4546 16.875 68.4546 11.9C68.4546 6.875 71.9546 3.475 76.9796 3.475C82.4796 3.475 86.0046 7.7 85.3796 13.15H73.1296C73.4546 15.025 75.0796 16.2 76.9296 16.2C78.3546 16.2 79.6296 15.525 80.2546 14.35H85.1046C83.9796 18 80.8546 20.275 76.7796 20.275ZM73.3546 10.15L80.5546 10.125C80.0046 8.6 78.7046 7.625 76.9796 7.625C75.2296 7.625 73.9296 8.6 73.3546 10.15ZM90.4669 20V15.625L98.1919 8.125H90.9669V3.75H104.742V8.125L96.9419 15.625H104.992V20H90.4669ZM112.901 20.275C107.876 20.275 104.376 16.875 104.376 11.85C104.376 6.85 107.876 3.45 112.901 3.45C117.926 3.45 121.426 6.85 121.426 11.85C121.426 16.875 117.926 20.275 112.901 20.275ZM109.201 11.85C109.201 14.2 110.726 15.775 112.901 15.775C115.076 15.775 116.601 14.2 116.601 11.85C116.601 9.55 115.076 7.975 112.901 7.975C110.726 7.975 109.201 9.55 109.201 11.85ZM121.419 20V3.75H126.169V5.775C126.669 4.675 128.169 3.475 130.569 3.475C134.269 3.475 137.019 6.325 137.019 10.45V20H132.169V10.85C132.169 9.05 130.969 7.825 129.219 7.825C127.469 7.825 126.294 9.05 126.294 10.85V20H121.419ZM144.836 20.275C139.961 20.275 136.511 16.875 136.511 11.9C136.511 6.875 140.011 3.475 145.036 3.475C150.536 3.475 154.061 7.7 153.436 13.15H141.186C141.511 15.025 143.136 16.2 144.986 16.2C146.411 16.2 147.686 15.525 148.311 14.35H153.161C152.036 18 148.911 20.275 144.836 20.275ZM141.411 10.15L148.611 10.125C148.061 8.6 146.761 7.625 145.036 7.625C143.286 7.625 141.986 8.6 141.411 10.15Z" fill="#FF5E60"/>
</svg>
