<svg width="133" height="21" viewBox="0 0 133 21" fill="none" xmlns="http://www.w3.org/2000/svg">
<path d="M0.435059 20V-2.98023e-07H15.2601V4.375H5.31006V9.425H13.7601V13.8H5.31006V20H0.435059ZM22.0499 20.275C17.0249 20.275 13.5249 16.875 13.5249 11.85C13.5249 6.85 17.0249 3.45 22.0499 3.45C27.0749 3.45 30.5749 6.85 30.5749 11.85C30.5749 16.875 27.0749 20.275 22.0499 20.275ZM18.3499 11.85C18.3499 14.2 19.8749 15.775 22.0499 15.775C24.2249 15.775 25.7499 14.2 25.7499 11.85C25.7499 9.55 24.2249 7.975 22.0499 7.975C19.8749 7.975 18.3499 9.55 18.3499 11.85ZM38.0929 20.275C33.0679 20.275 29.5679 16.875 29.5679 11.85C29.5679 6.85 33.0679 3.45 38.0929 3.45C43.1179 3.45 46.6179 6.85 46.6179 11.85C46.6179 16.875 43.1179 20.275 38.0929 20.275ZM34.3929 11.85C34.3929 14.2 35.9179 15.775 38.0929 15.775C40.2679 15.775 41.7929 14.2 41.7929 11.85C41.7929 9.55 40.2679 7.975 38.0929 7.975C35.9179 7.975 34.3929 9.55 34.3929 11.85ZM53.1858 20.275C48.9108 20.275 45.6108 16.875 45.6108 11.875C45.6108 6.9 48.9108 3.475 53.1858 3.475C55.0608 3.475 56.6108 4.125 57.7608 5.3V-2.98023e-07H62.5108V20H58.0858V18.2C56.8858 19.5 55.2108 20.275 53.1858 20.275ZM50.3858 11.85C50.3858 14.15 51.8858 15.7 54.0358 15.7C56.1608 15.7 57.6858 14.15 57.6858 11.85C57.6858 9.575 56.1608 8.05 54.0358 8.05C51.8858 8.05 50.3858 9.575 50.3858 11.85ZM68.5265 20V15.625L76.2515 8.125H69.0265V3.75H82.8015V8.125L75.0015 15.625H83.0515V20H68.5265ZM90.961 20.275C85.936 20.275 82.436 16.875 82.436 11.85C82.436 6.85 85.936 3.45 90.961 3.45C95.986 3.45 99.486 6.85 99.486 11.85C99.486 16.875 95.986 20.275 90.961 20.275ZM87.261 11.85C87.261 14.2 88.786 15.775 90.961 15.775C93.136 15.775 94.661 14.2 94.661 11.85C94.661 9.55 93.136 7.975 90.961 7.975C88.786 7.975 87.261 9.55 87.261 11.85ZM99.479 20V3.75H104.229V5.775C104.729 4.675 106.229 3.475 108.629 3.475C112.329 3.475 115.079 6.325 115.079 10.45V20H110.229V10.85C110.229 9.05 109.029 7.825 107.279 7.825C105.529 7.825 104.354 9.05 104.354 10.85V20H99.479ZM122.896 20.275C118.021 20.275 114.571 16.875 114.571 11.9C114.571 6.875 118.071 3.475 123.096 3.475C128.596 3.475 132.121 7.7 131.496 13.15H119.246C119.571 15.025 121.196 16.2 123.046 16.2C124.471 16.2 125.746 15.525 126.371 14.35H131.221C130.096 18 126.971 20.275 122.896 20.275ZM119.471 10.15L126.671 10.125C126.121 8.6 124.821 7.625 123.096 7.625C121.346 7.625 120.046 8.6 119.471 10.15Z" fill="#FF5E60"/>
</svg>
