<svg width="308" height="41" viewBox="0 0 308 41" fill="none" xmlns="http://www.w3.org/2000/svg">
<path d="M0.489258 40V-5.96046e-07H30.1393V8.75H10.2393V18.85H27.1393V27.6H10.2393V40H0.489258ZM43.7189 40.55C33.6689 40.55 26.6689 33.75 26.6689 23.7C26.6689 13.7 33.6689 6.9 43.7189 6.9C53.7689 6.9 60.7689 13.7 60.7689 23.7C60.7689 33.75 53.7689 40.55 43.7189 40.55ZM36.3189 23.7C36.3189 28.4 39.3689 31.55 43.7189 31.55C48.0689 31.55 51.1189 28.4 51.1189 23.7C51.1189 19.1 48.0689 15.95 43.7189 15.95C39.3689 15.95 36.3189 19.1 36.3189 23.7ZM75.8049 40.55C65.7549 40.55 58.7549 33.75 58.7549 23.7C58.7549 13.7 65.7549 6.9 75.8049 6.9C85.8549 6.9 92.8549 13.7 92.8549 23.7C92.8549 33.75 85.8549 40.55 75.8049 40.55ZM68.4049 23.7C68.4049 28.4 71.4549 31.55 75.8049 31.55C80.1549 31.55 83.2049 28.4 83.2049 23.7C83.2049 19.1 80.1549 15.95 75.8049 15.95C71.4549 15.95 68.4049 19.1 68.4049 23.7ZM105.991 40.55C97.4408 40.55 90.8408 33.75 90.8408 23.75C90.8408 13.8 97.4408 6.95 105.991 6.95C109.741 6.95 112.841 8.25 115.141 10.6V-5.96046e-07H124.641V40H115.791V36.4C113.391 39 110.041 40.55 105.991 40.55ZM100.391 23.7C100.391 28.3 103.391 31.4 107.691 31.4C111.941 31.4 114.991 28.3 114.991 23.7C114.991 19.15 111.941 16.1 107.691 16.1C103.391 16.1 100.391 19.15 100.391 23.7ZM126.636 40V12.85H136.386V40H126.636ZM126.636 8.75V-5.96046e-07H136.386V8.75H126.636ZM153.059 40.55C143.309 40.55 136.409 33.75 136.409 23.8C136.409 13.75 143.409 6.95 153.459 6.95C164.459 6.95 171.509 15.4 170.259 26.3H145.759C146.409 30.05 149.659 32.4 153.359 32.4C156.209 32.4 158.759 31.05 160.009 28.7H169.709C167.459 36 161.209 40.55 153.059 40.55ZM146.209 20.3L160.609 20.25C159.509 17.2 156.909 15.25 153.459 15.25C149.959 15.25 147.359 17.2 146.209 20.3ZM180.434 40V31.25L195.884 16.25H181.434V7.5H208.984V16.25L193.384 31.25H209.484V40H180.434ZM225.303 40.55C215.253 40.55 208.253 33.75 208.253 23.7C208.253 13.7 215.253 6.9 225.303 6.9C235.353 6.9 242.353 13.7 242.353 23.7C242.353 33.75 235.353 40.55 225.303 40.55ZM217.903 23.7C217.903 28.4 220.953 31.55 225.303 31.55C229.653 31.55 232.703 28.4 232.703 23.7C232.703 19.1 229.653 15.95 225.303 15.95C220.953 15.95 217.903 19.1 217.903 23.7ZM242.339 40V7.5H251.839V11.55C252.839 9.35 255.839 6.95 260.639 6.95C268.039 6.95 273.539 12.65 273.539 20.9V40H263.839V21.7C263.839 18.1 261.439 15.65 257.939 15.65C254.439 15.65 252.089 18.1 252.089 21.7V40H242.339ZM289.172 40.55C279.422 40.55 272.522 33.75 272.522 23.8C272.522 13.75 279.522 6.95 289.572 6.95C300.572 6.95 307.622 15.4 306.372 26.3H281.872C282.522 30.05 285.772 32.4 289.472 32.4C292.322 32.4 294.872 31.05 296.122 28.7H305.822C303.572 36 297.322 40.55 289.172 40.55ZM282.322 20.3L296.722 20.25C295.622 17.2 293.022 15.25 289.572 15.25C286.072 15.25 283.472 17.2 282.322 20.3Z" fill="#FF5E60"/>
</svg>
